<?xml version="1.0" encoding="UTF-8"?>
<svg width="476px" height="676px" viewBox="0 0 476 676" version="1.1" xmlns="http://www.w3.org/2000/svg" xmlns:xlink="http://www.w3.org/1999/xlink">
    <title>F_Logo</title>
    <defs>
        <linearGradient x1="59.6430624%" y1="11.168349%" x2="-21.6518273%" y2="57.9159647%" id="linearGradient-1">
            <stop stop-color="#211E1E" offset="0%"></stop>
            <stop stop-color="#6900FF" offset="42.0519529%"></stop>
            <stop stop-color="#292929" offset="100%"></stop>
        </linearGradient>
        <linearGradient x1="130.202628%" y1="43.3688272%" x2="-53.7554567%" y2="57.35496%" id="linearGradient-2">
            <stop stop-color="#000100" offset="0%"></stop>
            <stop stop-color="#00FF13" offset="42.7556013%"></stop>
            <stop stop-color="#000901" offset="100%"></stop>
        </linearGradient>
        <linearGradient x1="103.741659%" y1="36.5038325%" x2="14.9545579%" y2="52.9115958%" id="linearGradient-3">
            <stop stop-color="#060303" offset="0%"></stop>
            <stop stop-color="#FF0000" offset="100%"></stop>
        </linearGradient>
        <linearGradient x1="77.9527519%" y1="-30.0560286%" x2="13.8384599%" y2="138.79408%" id="linearGradient-4">
            <stop stop-color="#000100" offset="0%"></stop>
            <stop stop-color="#00FF13" offset="42.7556013%"></stop>
            <stop stop-color="#000901" offset="100%"></stop>
        </linearGradient>
        <linearGradient x1="12.8498242%" y1="138.79408%" x2="71.3402983%" y2="-11.1459799%" id="linearGradient-5">
            <stop stop-color="#000901" offset="0%"></stop>
            <stop stop-color="#6800FE" offset="100%"></stop>
        </linearGradient>
        <linearGradient x1="-53.967381%" y1="136.165637%" x2="109.722326%" y2="-9.33596388%" id="linearGradient-6">
            <stop stop-color="#000901" offset="0%"></stop>
            <stop stop-color="#6800FE" offset="100%"></stop>
        </linearGradient>
        <linearGradient x1="111.402009%" y1="-30.0560286%" x2="-29.4337259%" y2="138.79408%" id="linearGradient-7">
            <stop stop-color="#000100" offset="0%"></stop>
            <stop stop-color="#00FF13" offset="42.7556013%"></stop>
            <stop stop-color="#000901" offset="100%"></stop>
        </linearGradient>
    </defs>
    <g id="F_Logo" stroke="none" stroke-width="1" fill="none" fill-rule="evenodd">
        <g id="Group" transform="translate(53.000000, 38.000000)" fill-rule="nonzero">
            <path d="M22.4712707,557.26382 L22.4712707,171.006957 C22.4712707,136.128197 16.1090576,101.541946 3.69699474,68.9462698 L0,59.2374854 L0,59.2374854 L55.3827812,28 L353,28 L285.883931,123.540021 C280.513748,131.1845 271.75677,135.734518 262.414364,135.734518 L145.65478,135.734518 C131.481358,135.734518 119.958948,147.162106 119.842269,161.334608 L119.594016,191.488821 C119.515775,200.992431 127.156785,208.760054 136.660689,208.838292 C136.70791,208.838681 136.755133,208.838875 136.802357,208.838875 L234.355356,208.838875 L234.355356,208.838875 L180.313374,293.537724 L147.108704,293.537724 C132.938925,293.537724 121.418049,304.959656 121.296272,319.128471 L120.053029,463.77923 L120.053029,463.77923 L32.4715757,561.100829 C30.352388,563.455697 26.7253905,563.646808 24.3704499,561.527686 C23.161574,560.439864 22.4712707,558.890056 22.4712707,557.26382 Z" id="Path" fill="url(#linearGradient-1)"></path>
            <path d="M211.903014,7.43561712 C260.850272,7.79362065 297.560715,8.0621233 322.034345,8.24112506 C329.901297,8.29866447 341.701725,8.3849736 357.435629,8.50005243 L383,0 L334.196807,55.9101265 L178,59 L209.447148,8.78297412 C209.976062,7.93836768 210.905735,7.42832297 211.903014,7.43561712 Z" id="Path-12-Copy" fill="url(#linearGradient-2)"></path>
            <path d="M160.929011,7 L193.830828,7 C195.416457,7 196.701864,8.2950384 196.701864,9.89254922 C196.701864,10.5175204 196.500953,11.1256819 196.129206,11.6259961 L160.929011,59 L160.929011,59 L274,59 L120,59" id="Path-12-Copy-2" fill="url(#linearGradient-3)"></path>
            <polyline id="Path-12-Copy-4" fill="url(#linearGradient-4)" points="120 432 120 464.011306 22 598 22 595.977925 22 592.504111 22 559.393221"></polyline>
            <path d="M120,401 L120,433.087062 C55.4557664,517.99789 22.7890997,560.099943 22,559.393221 L22,553.581135 L22,527.474878" id="Path-12-Copy-8" fill="url(#linearGradient-5)"></path>
            <path d="M218.579372,209 L249.118799,209 C250.710042,209 252,210.288642 252,211.878263 C252,212.426822 251.843081,212.963957 251.547724,213.426406 L200.086973,294 L200.086973,294 L168,294" id="Path-12-Copy-6" fill="url(#linearGradient-6)"></path>
            <path d="M241.543701,209 L260.120831,209 C261.710952,209 263,210.288642 263,211.878263 C263,212.426822 262.843191,212.963957 262.548042,213.426406 L211.123584,294 L211.123584,294 L191,294" id="Path-12-Copy-7" fill="url(#linearGradient-7)"></path>
            <path d="M111.929011,7 L144.830828,7 C146.416457,7 147.701864,8.2950384 147.701864,9.89254922 C147.701864,10.5175204 147.500953,11.1256819 147.129206,11.6259961 L111.929011,59 L111.929011,59 L225,59 L71,59" id="Path-12-Copy-3" fill="url(#linearGradient-3)"></path>
            <path d="M62.9290114,7 L95.8308277,7 C97.4164573,7 98.7018643,8.2950384 98.7018643,9.89254922 C98.7018643,10.5175204 98.5009531,11.1256819 98.1292059,11.6259961 L62.9290114,59 L62.9290114,59 L176,59 L22,59" id="Path-12-Copy-5" fill="url(#linearGradient-3)"></path>
        </g>
    </g>
</svg>